{"title":"The Girl Who Played with Fire (PSP + Ipod touch + Zune)","uid":5664402,"size":516571006,"categoryP":"video","categoryS":"handheld","magnet":"?xt=urn:btih:7027fab792b16345e2b565f33ae5a69af4b4b407&amp;dn=The+Girl+Who+Played+with+Fire+%28PSP+%2B+Ipod+touch+%2B+Zune%29&amp;tr=udp%3A%2F%2Ftracker.openbittorrent.com%3A80&amp;tr=udp%3A%2F%2Fopen.demonii.com%3A1337&amp;tr=udp%3A%2F%2Ftracker.coppersurfer.tk%3A6969&amp;tr=udp%3A%2F%2Fexodus.desync.com%3A6969","seeders":1,"leechers":0,"uploader":"on.off.on","files":-1,"time":1278085474,"description":"The girl who played with fire - Swedish  &lt;a href=&quot;\nhttp://www.imdb.com/title/tt1216487/&quot; rel=&quot;nofollow&quot; target=&quot;_NEW&quot;&gt;\nhttp://www.imdb.com/title/tt1216487/&lt;/a&gt;\n\nSource  :\n\nThe.Girl.Who.Played.With.Fire.2009.1080p.BluRay.x264-FLHD\n\n\n\nInfo    :\n\nID                               : 1\nFormat                           : AVC\nFormat/Info                      : Advanced Video Codec\nFormat profile                   : &lt;a class=&quot;__cf_email__&quot; href=&quot;/cdn-cgi/l/email-protection&quot; data-cfemail=&quot;ffbd9e8c9a9396919abfb3cdd1ce&quot;&gt;[email&amp;#160;protected]&lt;/a&gt;&lt;script cf-hash='f9e31' type=&quot;text/javascript&quot;&gt;\n/* &lt;![CDATA[ */!function(){try{var t=&quot;currentScript&quot;in document?document.currentScript:function(){for(var t=document.getElementsByTagName(&quot;script&quot;),e=t.length;e--;)if(t[e].getAttribute(&quot;cf-hash&quot;))return t[e]}();if(t&amp;&amp;t.previousSibling){var e,r,n,i,c=t.previousSibling,a=c.getAttribute(&quot;data-cfemail&quot;);if(a){for(e=&quot;&quot;,r=parseInt(a.substr(0,2),16),n=2;a.length-n;n+=2)i=parseInt(a.substr(n,2),16)^r,e+=String.fromCharCode(i);e=document.createTextNode(e),c.parentNode.replaceChild(e,c)}}}catch(u){}}();/* ]]&gt; */&lt;/script&gt;\nFormat settings, CABAC           : No\nFormat settings, ReFrames        : 3 frames\nCodec ID                         : avc1\nCodec ID/Info                    : Advanced Video Coding\nDuration                         : 2h 9mn\nBit rate mode                    : Variable\nBit rate                         : 400 Kbps\nWidth                            : 480 pixels\nHeight                           : 272 pixels\nDisplay aspect ratio             : 16:9\nFrame rate mode                  : Variable\nFrame rate                       : 24.000 fps\nMinimum frame rate               : 23.810 fps\nMaximum frame rate               : 24.390 fps\nColor space                      : YUV\nChroma subsampling               : 4:2:0\nBit depth                        : 8 bits\nScan type                        : Progressive\nBits/(Pixel*Frame)               : 0.128\nStream size                      : 370 MiB (75%)\nWriting library                  : x264 core 79\n\nID                               : 2\nFormat                           : AAC\nFormat/Info                      : Advanced Audio Codec\nFormat version                   : Version 4\nFormat profile                   : LC\nFormat settings, SBR             : No\nCodec ID                         : 40\nDuration                         : 2h 9mn\nBit rate mode                    : Variable\nBit rate                         : 128 Kbps\nMaximum bit rate                 : 216 Kbps\nChannel(s)                       : 2 channels\nChannel positions                : Front: L R\nSampling rate                    : 48.0 KHz\nStream size                      : 118 MiB (24%)\nLanguage                         : Swedish\n\nScreens : &lt;a href=&quot;\nhttp://img267.imageshack.us/img267/2115/vlcsnap00001l.png&quot; rel=&quot;nofollow&quot; target=&quot;_NEW&quot;&gt;\nhttp://img267.imageshack.us/img267/2115/vlcsnap00001l.png&lt;/a&gt; &lt;a href=&quot;\nhttp://img704.imageshack.us/img704/4834/vlcsnap00002h.png&quot; rel=&quot;nofollow&quot; target=&quot;_NEW&quot;&gt;\nhttp://img704.imageshack.us/img704/4834/vlcsnap00002h.png&lt;/a&gt; &lt;a href=&quot;\nhttp://img32.imageshack.us/img32/3526/vlcsnap00003k.png&quot; rel=&quot;nofollow&quot; target=&quot;_NEW&quot;&gt;\nhttp://img32.imageshack.us/img32/3526/vlcsnap00003k.png&lt;/a&gt; &lt;a href=&quot;\nhttp://img709.imageshack.us/img709/5591/vlcsnap00004j.png&quot; rel=&quot;nofollow&quot; target=&quot;_NEW&quot;&gt;\nhttp://img709.imageshack.us/img709/5591/vlcsnap00004j.png&lt;/a&gt; &lt;a href=&quot;\nhttp://img180.imageshack.us/img180/5996/vlcsnap00005b.png&quot; rel=&quot;nofollow&quot; target=&quot;_NEW&quot;&gt;\nhttp://img180.imageshack.us/img180/5996/vlcsnap00005b.png&lt;/a&gt; &lt;a href=&quot;\nhttp://img697.imageshack.us/img697/5555/vlcsnap00006ey.png&quot; rel=&quot;nofollow&quot; target=&quot;_NEW&quot;&gt;\nhttp://img697.imageshack.us/img697/5555/vlcsnap00006ey.png&lt;/a&gt; &lt;a href=&quot;\nhttp://img149.imageshack.us/img149/517/vlcsnap00007ra.png&quot; rel=&quot;nofollow&quot; target=&quot;_NEW&quot;&gt;\nhttp://img149.imageshack.us/img149/517/vlcsnap00007ra.png&lt;/a&gt; &lt;a href=&quot;\nhttp://img808.imageshack.us/img808/8104/vlcsnap00008.png&quot; rel=&quot;nofollow&quot; target=&quot;_NEW&quot;&gt;\nhttp://img808.imageshack.us/img808/8104/vlcsnap00008.png&lt;/a&gt;\n  \n\n\n\n\nTHIS MOVIE IS IN SWEDISH WITH ENGLISH SUBS! REASON? \nTHE DUBBED VERSION IS A SHAME FOR THE ENTIRE MOVIE!!!!\n\n\n\n\n\nPLEASE LET THE TORRENT SEED AND SHARE IT WITH ALL YOU KNOW!\n\nLet me know what I can do to be your trusted source of Handheld videos. &lt;a href=&quot;\nhttp://thepiratebay.se/user/on.off.on/&quot; rel=&quot;nofollow&quot; target=&quot;_NEW&quot;&gt;\nhttp://thepiratebay.se/user/on.off.on/&lt;/a&gt; -OOO","torrent":{"xt":"urn:btih:7027fab792b16345e2b565f33ae5a69af4b4b407","amp;dn":"The+Girl+Who+Played+with+Fire+%28PSP+%2B+Ipod+touch+%2B+Zune%29","amp;tr":["udp%3A%2F%2Ftracker.openbittorrent.com%3A80","udp%3A%2F%2Fopen.demonii.com%3A1337","udp%3A%2F%2Ftracker.coppersurfer.tk%3A6969","udp%3A%2F%2Fexodus.desync.com%3A6969"],"infoHash":"7027fab792b16345e2b565f33ae5a69af4b4b407","infoHashBuffer":{"type":"Buffer","data":[112,39,250,183,146,177,99,69,226,181,101,243,58,229,166,154,244,180,180,7]},"announce":[],"urlList":[]}}